<?xml version="1.0" encoding="UTF-8" standalone="no"?><!DOCTYPE svg PUBLIC "-//W3C//DTD SVG 1.1//EN" "http://www.w3.org/Graphics/SVG/1.1/DTD/svg11.dtd"><svg width="100%" height="100%" viewBox="0 0 500 500" version="1.1" xmlns="http://www.w3.org/2000/svg" xmlns:xlink="http://www.w3.org/1999/xlink" xml:space="preserve" xmlns:serif="http://www.serif.com/" style="fill-rule:evenodd;clip-rule:evenodd;stroke-linejoin:round;stroke-miterlimit:1.41421;"><path d="M213.834,345.457c10.866,-7.777 24.708,-13.507 42.304,-14.627c47.858,-3.047 104.741,15.211 85.029,30.734c-0.946,0.746 -2.106,1.537 -3.47,2.345l-0.23,0.047c-3.748,2.039 -8.96,4.006 -15.843,5.843c-58.705,15.668 -44.928,38.568 -102.062,56.999c-99.708,32.164 -47.068,-15.643 -43.424,-25.01c2.287,-5.879 10.752,-36.057 36.124,-55.177l0.379,-0.284l0.166,-0.122l0.295,-0.218l0.153,-0.112l0.047,-0.034l0.347,-0.251l0.185,-0.133Zm7.617,-256.546c-0.657,-29.628 -28.475,-49.261 -31.117,-58.722c-0.193,-0.689 -0.755,-1.958 -1.016,-2.761c-0.627,-1.937 -0.812,-3.57 0.665,-5.241c1.972,-2.233 17.927,-4.322 50.996,11.119c35.015,16.35 52.084,35.743 59.409,46.445c14.629,2.051 28.796,5.762 42.343,10.71c18.021,29.446 36.2,74.63 36.2,137.087c0,57.659 -8.347,99.755 -25.212,112.558c-6.749,5.122 -15.398,-0.797 -18.827,-2.673c-19.08,-10.438 -53.825,-16.82 -84.684,-13.545c-19.08,2.024 -33.786,7.993 -45.093,15.615c-21.87,-15.256 -44.025,-34.105 -62.922,-51.43c-0.61,-0.405 -1.244,-0.895 -1.905,-1.473c-25.395,-22.204 -44.808,-19.179 -61.657,9.288c-12.84,21.692 -63.604,96.533 -65.904,93.817c-1.188,-1.402 48.279,-112.944 48.979,-159.495c0.622,-41.291 -31.877,-99.479 -44.775,-119.812c-20.079,-31.654 35.529,13.635 61.236,48.689c22.379,30.516 25.291,49.03 47.893,16.164c0.151,-0.219 0.319,-0.389 0.502,-0.51c20.261,-29.206 48.836,-61.594 84.825,-80.523c2.632,17.945 19.273,19.199 37.364,14.811c-14.72,1.647 -26.7,-2.413 -27.287,-19.663l-0.003,-0.108l-0.01,-0.347l0,0Zm137.596,8.22c74.68,33.8 126.88,102.663 127.078,126.886c0.504,61.937 -51.806,114.776 -131.981,136.054c6.575,-5.57 14.242,-13.442 19.612,-22.722c20.925,-36.161 9.096,-43.604 20.191,-120.08c11.041,-76.103 -16.13,-89.978 -34.9,-120.138Zm88.232,104.391c6.558,0 11.883,5.325 11.883,11.883c0,6.558 -5.325,11.883 -11.883,11.883c-6.559,0 -11.883,-5.325 -11.883,-11.883c0,-6.558 5.324,-11.883 11.883,-11.883Z"/></svg>